<?xml version="1.0" encoding="UTF-8" standalone="no"?><!DOCTYPE svg PUBLIC "-//W3C//DTD SVG 1.1//EN" "http://www.w3.org/Graphics/SVG/1.1/DTD/svg11.dtd"><svg width="100%" height="100%" viewBox="0 0 633 633" version="1.1" xmlns="http://www.w3.org/2000/svg" xmlns:xlink="http://www.w3.org/1999/xlink" xml:space="preserve" xmlns:serif="http://www.serif.com/" style="fill-rule:evenodd;clip-rule:evenodd;stroke-linejoin:round;stroke-miterlimit:2;"><g opacity="0.4"><rect x="0" y="0" width="100" height="100" style="fill:#e3e3e3;"/><rect x="100" y="100" width="100" height="100" style="fill:#e3e3e3;"/><rect x="300" y="100" width="100" height="100" style="fill:#e3e3e3;"/><rect x="500" y="100" width="100" height="100" style="fill:#e3e3e3;"/><rect x="200" y="0" width="100" height="100" style="fill:#e3e3e3;"/><rect x="600" y="0" width="32" height="100" style="fill:#e3e3e3;"/><rect x="600" y="600" width="32" height="32" style="fill:#e3e3e3;"/><rect x="400" y="0" width="100" height="100" style="fill:#e3e3e3;"/><rect x="0" y="200" width="100" height="100" style="fill:#e3e3e3;"/><rect x="100" y="300" width="100" height="100" style="fill:#e3e3e3;"/><rect x="300" y="300" width="100" height="100" style="fill:#e3e3e3;"/><rect x="500" y="300" width="100" height="100" style="fill:#e3e3e3;"/><rect x="200" y="200" width="100" height="100" style="fill:#e3e3e3;"/><rect x="600" y="200" width="32" height="100" style="fill:#e3e3e3;"/><rect x="400" y="200" width="100" height="100" style="fill:#e3e3e3;"/><rect x="0" y="400" width="100" height="100" style="fill:#e3e3e3;"/><rect x="100" y="500" width="100" height="100" style="fill:#e3e3e3;"/><rect x="0" y="600" width="100" height="32" style="fill:#e3e3e3;"/><rect x="200" y="600" width="100" height="32" style="fill:#e3e3e3;"/><rect x="300" y="500" width="100" height="100" style="fill:#e3e3e3;"/><rect x="500" y="500" width="100" height="100" style="fill:#e3e3e3;"/><rect x="200" y="400" width="100" height="100" style="fill:#e3e3e3;"/><rect x="600" y="400" width="32" height="100" style="fill:#e3e3e3;"/><rect x="400" y="400" width="100" height="100" style="fill:#e3e3e3;"/><rect x="400" y="600" width="100" height="32" style="fill:#e3e3e3;"/></g></svg>